<svg xmlns="http://www.w3.org/2000/svg" viewBox="0 0 50 50"><defs><style>.cls-1,.cls-2{fill:#fff;}.cls-1{opacity:0.05;}</style></defs><title>Fichier 22</title><g id="Calque_2" data-name="Calque 2"><g id="Calque_20" data-name="Calque 20"><circle class="cls-1" cx="25" cy="25" r="25"/><path class="cls-2" d="M26.8,25.14a.2.2,0,0,1,0-.28l7-7a.2.2,0,0,0,0-.28l-1.47-1.47a.2.2,0,0,0-.28,0L25.14,23a.2.2,0,0,1-.28,0L18,16.11a.2.2,0,0,0-.28,0L16.2,17.58a.2.2,0,0,0,0,.28l7,7a.2.2,0,0,1,0,.28l-7,7a.2.2,0,0,0,0,.28l1.47,1.47a.2.2,0,0,0,.28,0l6.9-6.9a.2.2,0,0,1,.28,0l6.9,6.9a.2.2,0,0,0,.28,0l1.47-1.47a.2.2,0,0,0,0-.28Z"/></g></g></svg>