<svg xmlns="http://www.w3.org/2000/svg" viewBox="0 0 13.98 25.86"><defs><style>.cls-1{fill:#fff;}</style></defs><title>facebook</title><g id="Calque_2" data-name="Calque 2"><g id="Écran_principal" data-name="Écran principal"><path class="cls-1" d="M13.46,0H10.1C6.33,0,3.9,2.5,3.9,6.36V9.3H.53A.53.53,0,0,0,0,9.83v4.25a.53.53,0,0,0,.53.53H3.9V25.33a.53.53,0,0,0,.53.53h4.4a.53.53,0,0,0,.53-.53V14.61H13.3a.53.53,0,0,0,.53-.53V9.83a.53.53,0,0,0-.53-.53H9.35V6.81c0-1.2.28-1.8,1.84-1.8h2.26A.53.53,0,0,0,14,4.48V.53A.53.53,0,0,0,13.46,0Z"/></g></g></svg>