<svg xmlns="http://www.w3.org/2000/svg" viewBox="0 0 50 50"><defs><style>.cls-1{fill:#010202;opacity:0.25;}.cls-2{fill:#fff;}</style></defs><title>help</title><g id="Calque_2" data-name="Calque 2"><g id="Écran_principal_P4" data-name="Écran principal P4"><circle class="cls-1" cx="25" cy="25" r="25"/><path class="cls-2" d="M23.36,28.26c0-3.65,4.4-4.67,4.4-7.35,0-1.4-1-2.17-2.67-2.17A3.24,3.24,0,0,0,21.84,21l-2.47-1.4a6,6,0,0,1,5.8-3.7A6.05,6.05,0,0,1,29,17.21a4.25,4.25,0,0,1,1.62,3.52c0,3.75-4.4,4.87-4.4,7.52Zm3.32,3.92a1.87,1.87,0,0,1-3.75,0,1.86,1.86,0,0,1,1.87-1.88A1.89,1.89,0,0,1,26.69,32.19Z"/></g></g></svg>