<svg xmlns="http://www.w3.org/2000/svg" viewBox="0 0 25.86 21.01"><defs><style>.cls-1{fill:#fff;}</style></defs><title>twitter</title><g id="Calque_2" data-name="Calque 2"><g id="Écran_principal" data-name="Écran principal"><path class="cls-1" d="M25.86,2.49a10.59,10.59,0,0,1-3,.84A5.33,5.33,0,0,0,25.15.39a10.7,10.7,0,0,1-3.37,1.29,5.31,5.31,0,0,0-9,4.84A15.06,15.06,0,0,1,1.8,1,5.31,5.31,0,0,0,3.44,8.05,5.31,5.31,0,0,1,1,7.39v.07a5.31,5.31,0,0,0,4.26,5.2,5.37,5.37,0,0,1-1.4.19,5.09,5.09,0,0,1-1-.1,5.31,5.31,0,0,0,5,3.68,10.64,10.64,0,0,1-6.59,2.27A11.28,11.28,0,0,1,0,18.62,15,15,0,0,0,8.13,21,15,15,0,0,0,23.23,5.91l0-.69A10.59,10.59,0,0,0,25.86,2.49Z"/></g></g></svg>