<svg xmlns="http://www.w3.org/2000/svg" viewBox="0 0 110.72 134.7"><defs><style>.cls-1{fill:#fff;}</style></defs><title>asterios</title><g id="Calque_2" data-name="Calque 2"><g id="À_propos" data-name="À propos"><path class="cls-1" d="M82.21,98.4h2.07v0h9v0h1.26V.31H82.21Zm4.27-4.22V4.58h3.79V94.17Z"/><path class="cls-1" d="M0,98.4H4.27V51.56H8.06V98.4h4.27V.31H0ZM8.06,4.58V47.3H4.27V4.58Z"/><path class="cls-1" d="M68.52,52.49H70V.31H57.69V98.4H62V52.49H63.7L66.4,98.4h4.27L68,52.49ZM65.74,4.58V48.23H62V4.58Z"/><polyline class="cls-1" points="28.54 8.56 16.22 8.56 16.22 55.86 24.27 55.86 24.27 94.24 20.36 94.24 20.36 60.44 16.1 60.44 16.1 98.45 16.22 98.45 16.22 98.51 28.54 98.51 28.54 51.59 20.48 51.59 20.48 12.82 24.21 12.82 24.21 45.97 28.48 45.97"/><polygon class="cls-1" points="102.66 47.25 102.66 4.58 106.39 4.58 106.39 42.99 110.65 42.99 110.65 4.58 110.72 4.58 110.72 0.31 98.39 0.31 98.39 51.52 106.45 51.51 106.45 94.24 102.54 94.24 102.54 55.97 98.27 55.97 98.27 98.45 98.39 98.45 98.39 98.51 110.72 98.51 110.72 47.25 102.66 47.25"/><polygon class="cls-1" points="16.27 4.27 32.72 4.27 32.71 98.19 32.71 98.43 36.97 98.43 36.99 4.27 53.33 4.27 53.33 0 16.27 0 16.27 4.27"/><polygon class="cls-1" points="41 8.67 41 98.19 44.23 98.19 44.23 98.2 53.25 98.2 53.25 96.44 53.25 93.93 53.25 57.3 49.08 57.3 49.08 93.94 45.27 93.94 45.27 52.9 53.25 52.9 53.25 48.63 45.27 48.63 45.27 12.94 49.08 12.94 49.08 44.2 53.25 44.2 53.25 12.94 53.25 11.81 53.25 8.67 41 8.67"/><rect class="cls-1" x="74.05" y="8.11" width="4.27" height="90.22"/><rect class="cls-1" x="74.05" y="0.29" width="4.27" height="4.29"/><path class="cls-1" d="M21.52,121.84l-.4-1.3H19.19l-.37,1.3H16.46l2.34-7.76h2.79l2.34,7.76Zm-1.36-5.18h0l-.52,1.93h1.09Z"/><path class="cls-1" d="M32.56,116.57a2.6,2.6,0,0,0-1.72-.68c-.38,0-.57.2-.57.4s0,.34.42.47l1.27.44a2.39,2.39,0,0,1,1.86,2.26c0,1.51-1.25,2.51-3,2.51a4.77,4.77,0,0,1-3.34-1.23l1.24-1.63a3.33,3.33,0,0,0,2,.91c.44,0,.67-.24.67-.45s-.09-.38-.64-.57l-1.13-.39a2.37,2.37,0,0,1-1.78-2.28c0-1.24,1.1-2.38,2.94-2.38a4.27,4.27,0,0,1,3,1.09Z"/><path class="cls-1" d="M44.39,116.09H42.21v5.74H39.93v-5.74H37.75v-2h6.64Z"/><path class="cls-1" d="M54.92,116h-4v.9h2v2h-2v.93h4v2H48.71v-7.76h6.21Z"/><path class="cls-1" d="M62.45,119.25h-.72v2.58H59.5v-7.76h3.58a2.69,2.69,0,0,1,3,2.57,2.35,2.35,0,0,1-1.43,2.28l1.7,2.91h-2.5Zm.44-1.89c.64,0,.89-.29.89-.67s-.26-.68-.89-.68H61.73v1.35Z"/><path class="cls-1" d="M70.63,114.08h2.23v7.76H70.63Z"/><path class="cls-1" d="M85.47,118a4.09,4.09,0,1,1-4.09-4A4,4,0,0,1,85.47,118Zm-2.38,0a1.72,1.72,0,1,0-1.71,1.93A1.74,1.74,0,0,0,83.09,118Z"/><path class="cls-1" d="M94.3,116.57a2.6,2.6,0,0,0-1.72-.68c-.38,0-.57.2-.57.4s0,.33.43.46l1.27.45a2.39,2.39,0,0,1,1.87,2.26c0,1.51-1.26,2.51-3,2.51a4.76,4.76,0,0,1-3.34-1.23l1.24-1.63a3.31,3.31,0,0,0,2,.91c.44,0,.66-.24.66-.45s-.09-.38-.64-.57l-1.13-.39a2.38,2.38,0,0,1-1.77-2.29c0-1.24,1.1-2.39,2.94-2.39a4.26,4.26,0,0,1,3,1.09Z"/><path class="cls-1" d="M9.77,129.3A2.61,2.61,0,0,0,8,128.62c-.38,0-.56.2-.56.4s0,.33.42.46l1.27.44A2.39,2.39,0,0,1,11,132.19c0,1.51-1.25,2.51-3,2.51a4.77,4.77,0,0,1-3.33-1.23L6,131.84a3.3,3.3,0,0,0,2,.91c.44,0,.67-.24.67-.45s-.09-.38-.65-.57l-1.13-.39A2.38,2.38,0,0,1,5.08,129c0-1.24,1.1-2.38,2.94-2.38a4.26,4.26,0,0,1,3,1.09Z"/><path class="cls-1" d="M17.71,134.56H15.5V126.8h2.94a2.74,2.74,0,0,1,3.07,2.76,2.79,2.79,0,0,1-3.07,2.84h-.72Zm.45-5.82h-.45v1.71h.45c.58,0,1-.25,1-.85S18.74,128.74,18.16,128.74Z"/><path class="cls-1" d="M32,128.74H28v.9h2v2H28v.93h4v2H25.82V126.8H32Z"/><path class="cls-1" d="M38.45,130.68a1.74,1.74,0,0,0,1.71,1.93,1.56,1.56,0,0,0,1.54-1.16h2.48a4.09,4.09,0,1,1-4-4.78,3.89,3.89,0,0,1,4,3.23H41.69a1.59,1.59,0,0,0-1.53-1.14A1.74,1.74,0,0,0,38.45,130.68Z"/><path class="cls-1" d="M54.62,128.82H52.43v5.74H50.16v-5.74H48v-2h6.64Z"/><path class="cls-1" d="M62.68,134.56l-.4-1.3H60.34l-.37,1.3H57.62L60,126.8h2.79l2.34,7.76Zm-1.37-5.18h0l-.52,1.93h1.09Z"/><path class="cls-1" d="M71,130.68a1.74,1.74,0,0,0,1.7,1.93,1.56,1.56,0,0,0,1.54-1.17h2.48a4.09,4.09,0,1,1-4-4.78,3.9,3.9,0,0,1,4,3.22H74.23a1.6,1.6,0,0,0-1.53-1.14A1.73,1.73,0,0,0,71,130.68Z"/><path class="cls-1" d="M81,134.56V126.8h2.23v5.74h3.19v2Z"/><path class="cls-1" d="M97,128.74H93v.9h2v2H93v.93h4v1.95H90.79V126.8H97Z"/><path class="cls-1" d="M106,129.3a2.61,2.61,0,0,0-1.72-.68c-.38,0-.57.2-.57.4s0,.33.42.46l1.27.44a2.39,2.39,0,0,1,1.86,2.26c0,1.51-1.25,2.5-3,2.5a4.78,4.78,0,0,1-3.34-1.23l1.24-1.63a3.33,3.33,0,0,0,2,.91c.44,0,.67-.24.67-.45s-.09-.38-.64-.57l-1.13-.39a2.38,2.38,0,0,1-1.78-2.29c0-1.24,1.1-2.38,2.94-2.38a4.25,4.25,0,0,1,3,1.09Z"/></g></g></svg>