<svg xmlns="http://www.w3.org/2000/svg" viewBox="0 0 150.16 144.76"><defs><style>.cls-1{fill:#fff;}.cls-2{fill:none;stroke:#fff;stroke-miterlimit:10;stroke-width:0.5px;}</style></defs><title>gobelins</title><g id="Calque_2" data-name="Calque 2"><g id="À_propos" data-name="À propos"><path class="cls-1" d="M24.36,134.14v-.47c0-2.27.75-3.89,3.51-3.89,2.07,0,3,.87,3.24,2.77l-1.76.26c-.06-1-.48-1.59-1.52-1.59-1.41,0-1.83.92-1.83,2.45v.47c0,1.66.43,2.45,1.85,2.45,1.11,0,1.45-.48,1.58-1.7l1.75.19A3.07,3.07,0,0,1,27.73,138C25.15,138,24.36,136.39,24.36,134.14Z"/><path class="cls-1" d="M31.76,134.14v-.47c0-2.27.75-3.89,3.51-3.89,2.07,0,3,.87,3.24,2.77l-1.76.26c-.06-1-.48-1.59-1.52-1.59-1.41,0-1.83.92-1.83,2.45v.47c0,1.66.43,2.45,1.85,2.45,1.11,0,1.45-.48,1.58-1.7l1.75.19A3.07,3.07,0,0,1,35.12,138C32.55,138,31.76,136.39,31.76,134.14Z"/><path class="cls-1" d="M39.57,129.86H41.2V138H39.57Z"/><path class="cls-1" d="M44.87,130.64h3.19c1.24,0,2.54.36,2.54,2.21a2.28,2.28,0,0,1-2.54,2.33H46.34V138H44.87Zm3,3.33c.71,0,1.25-.22,1.25-1.06s-.48-1.05-1.25-1.05H46.34V134Z"/><path class="cls-1" d="M53.35,130.58h1.5L57.34,138H55.85l-.5-1.47H52.81L52.32,138H50.88Zm-.14,4.73H55l-.88-2.59Z"/><path class="cls-1" d="M61,135.09H59.57V138H58.1v-7.32h3.19c1.3,0,2.54.37,2.54,2.19a2,2,0,0,1-1.36,2L64,138H62.37Zm.11-1.22c.83,0,1.25-.29,1.25-1s-.4-1-1.25-1H59.57v2Z"/><path class="cls-1" d="M65,130.64h1.47V138H65Z"/><path class="cls-1" d="M67.32,135.77l1.58-.16c.15.75.49,1.13,1.63,1.13.84,0,1.39-.22,1.39-.89s-.6-.78-1.68-1c-1.35-.29-2.57-.61-2.57-2.16,0-1.16.77-2.07,2.82-2.07,1.63,0,2.53.67,2.84,1.93l-1.63.21c-.12-.57-.44-.84-1.22-.84-1,0-1.33.26-1.33.75s.46.65,1.52.9c1.72.39,2.74.74,2.74,2.33S72.12,138,70.51,138C68.34,138,67.64,137.09,67.32,135.77Z"/><path class="cls-1" d="M76.4,130.64h1.47V138H76.4Z"/><path class="cls-1" d="M79.24,130.64h1.47v6h3.33V138H79.24Z"/><path class="cls-1" d="M84.88,130.64h5v1.3h-3.5v1.42H89.5v1.28H86.36v2h3.5V138h-5Z"/><path class="cls-1" d="M90.57,134.2h3.57v1.24H90.57Z"/><path class="cls-1" d="M95,130.64h2.54c2.56,0,3.17,1.4,3.17,3.43v.46c0,2-.81,3.44-3.16,3.44H95Zm2.55,6.1c1.37,0,1.67-.87,1.67-2.22v-.44c0-1.54-.41-2.18-1.68-2.18H96.5v4.84Z"/><path class="cls-1" d="M101.73,130.64h5v1.3h-3.5v1.42h3.15v1.28H103.2v2h3.5V138h-5Z"/><path class="cls-1" d="M107.42,134.2H111v1.24h-3.57Z"/><path class="cls-1" d="M111.87,130.64h5v1.3h-3.5v1.56h3.15v1.3h-3.15V138h-1.47Z"/><path class="cls-1" d="M120.57,135.09h-1.43V138h-1.47v-7.32h3.19c1.3,0,2.54.37,2.54,2.19a2,2,0,0,1-1.36,2l1.47,3.09h-1.58Zm.11-1.22c.83,0,1.25-.29,1.25-1s-.4-1-1.25-1h-1.53v2Z"/><path class="cls-1" d="M126.38,130.58h1.5l2.49,7.38h-1.49l-.5-1.47h-2.54l-.49,1.47h-1.44Zm-.14,4.73H128l-.88-2.59Z"/><path class="cls-1" d="M131.13,130.64h1.77l2.53,4.55v-4.55h1.43V138H135.4l-2.85-5.12V138h-1.42Z"/><path class="cls-1" d="M137.85,134.52v-.42c0-2,.68-3.51,3.17-3.51,1.87,0,2.71.78,2.93,2.5l-1.59.23c-.06-.9-.43-1.44-1.37-1.44-1.28,0-1.65.83-1.65,2.21v.42c0,1.5.39,2.21,1.67,2.21,1,0,1.31-.43,1.43-1.53l1.58.18a2.77,2.77,0,0,1-3.12,2.64C138.56,138,137.85,136.54,137.85,134.52Z"/><path class="cls-1" d="M144.88,130.64h5v1.3h-3.5v1.42h3.15v1.28h-3.15v2h3.5V138h-5Z"/><path class="cls-1" d="M.24,134.1A10.67,10.67,0,0,0,10.9,144.76a10.56,10.56,0,0,0,6.56-2.26L15.2,140a7.29,7.29,0,1,1-1.39-12.55l1.34-3.11A10.65,10.65,0,0,0,.24,134.1Z"/><path class="cls-1" d="M5.22,134.1a5.69,5.69,0,0,0,5.68,5.68,5.57,5.57,0,0,0,3.19-1l-2.3-2.56a2.39,2.39,0,0,1-.9.19,2.3,2.3,0,0,1-2.3-2.3A2.3,2.3,0,0,1,11.84,132l1.34-3.06a5.78,5.78,0,0,0-2.28-.49A5.69,5.69,0,0,0,5.22,134.1Z"/><path class="cls-1" d="M15.14,131.89a5,5,0,0,1,.55,2.21,5.15,5.15,0,0,1-1,3l2.28,2.51a8.14,8.14,0,0,0,2.15-5.5,8.24,8.24,0,0,0-.86-3.64Z"/><path class="cls-1" d="M14.19,130.63,20,127.92a10.9,10.9,0,0,0-3.21-3.13l-2.59,5.82Z"/><line class="cls-2" x1="0.35" y1="113.74" x2="150.02" y2="113.74"/><path class="cls-1" d="M75,36A18,18,0,1,0,57,18,18,18,0,0,0,75,36Zm0-22a4,4,0,1,1-4,4,4,4,0,0,1,4-4Z"/><path class="cls-1" d="M95.37,59.42c-.09-1.25-.38-8.09-10-11.2-9.31-3-24.3-7.48-24.3-7.48s-2.51-.67-2.89-2.68,2.47-3.65,3-3.9l.32-.17-.17-.27-.45.21A11.35,11.35,0,0,0,54.8,45c.09,1.24.38,8.09,10,11.2,9.31,3,24.3,7.48,24.3,7.48s2.42.76,3,2.66c.7,2.47-2.84,4.43-3.56,4.8l-.72.35.2.28.74-.35a11.91,11.91,0,0,0,6.65-12Z"/><path class="cls-1" d="M5.94,82.22h9.35v.31A7.51,7.51,0,0,1,7.7,89.81,7.46,7.46,0,1,1,7.63,74.9a7.5,7.5,0,0,1,6.95,4.49H11.4a4.58,4.58,0,0,0-3.84-2,5,5,0,1,0,.14,9.95,4.72,4.72,0,0,0,4.24-2.63h-6Z"/><path class="cls-1" d="M25.81,82.37a4.84,4.84,0,1,1,4.84,5A4.91,4.91,0,0,1,25.81,82.37Zm-2.65,0a7.49,7.49,0,1,0,7.49-7.49A7.46,7.46,0,0,0,23.16,82.39Z"/><path class="cls-1" d="M49.85,83.24h1.39c2.33,0,2.61,1.34,2.61,1.91C53.86,87,51.71,87,51.19,87H49.85Zm-2.42,6.27h3.84a6.93,6.93,0,0,0,3.7-.85,4,4,0,0,0,1.78-3.4,3.46,3.46,0,0,0-2.46-3.57A2.92,2.92,0,0,0,55.9,79a3.75,3.75,0,0,0-1.22-2.67c-1.24-1.11-2.83-1.11-4.41-1.11H47.44Zm2.42-11.84H51c1.51,0,2.05.69,2.05,1.55,0,1.54-1.67,1.54-2.28,1.54h-.88Z"/><path class="cls-1" d="M67.79,75.19h7.7v2.48h-5v3.5h4.84v2.47H70.44V87h5v2.47h-7.7Z"/><path class="cls-1" d="M86.61,75.19h2.65V87h4.38v2.47h-7Z"/><path class="cls-1" d="M104.08,75.19h2.65V89.51h-2.65Z"/><path class="cls-1" d="M118.63,75.19h3l5.93,10.41h0V75.19h2.65V89.51h-3l-6-10.41h0V89.51h-2.65Z"/><path class="cls-1" d="M140.86,85.41a4.58,4.58,0,0,0,4.66,4.39,4.44,4.44,0,0,0,4.64-4.57c0-3.11-2.57-4-3.75-4.41-1.45-.48-2.37-.76-2.37-2a1.42,1.42,0,0,1,1.47-1.45,1.52,1.52,0,0,1,1.6,1.6h2.71a4.2,4.2,0,0,0-4.24-4.09,4.06,4.06,0,0,0-4.2,4.09c0,3,2.3,3.7,3.4,4.13,1.78.68,2.73,1,2.73,2.42a1.94,1.94,0,0,1-3.87-.11Z"/><path class="cls-1" d="M32.26,98.81a4.12,4.12,0,1,1,4.11,4A4.13,4.13,0,0,1,32.26,98.81Zm-1,0a5.07,5.07,0,1,0,5.07-5A5.05,5.05,0,0,0,31.3,98.81Z"/><path class="cls-1" d="M.11,94h1v8.73H5v.87H.11Z"/><path class="cls-1" d="M6.55,94h1L6.27,96.83H5.41Z"/><path class="cls-1" d="M11.21,94h5.25v.88H12.18v3.45h4.15v.86H12.18v3.54h4.29v.87H11.21Zm3.73-2.69.42.78L12.8,93.46l-.43-.75Z"/><path class="cls-1" d="M29.15,101a5.07,5.07,0,0,1-4.42,2.68,5,5,0,1,1,4.38-7.3H28a4.07,4.07,0,0,0-3.33-1.74A4.09,4.09,0,1,0,28.08,101Z"/><path class="cls-1" d="M44.61,94h1v8.73h4v.87H44.61Z"/><path class="cls-1" d="M52.86,94H58.1v.88H53.81v3.45H58v.86H53.81v3.54H58.1v.87H52.86Z"/><path class="cls-1" d="M66.17,94.86h1.38a5.36,5.36,0,0,1,3.17.74,4,4,0,0,1,1.63,3.18,4,4,0,0,1-1.5,3.16,5.53,5.53,0,0,1-3.3.78H66.17Zm-1,8.72H68a6,6,0,0,0,3.12-.79,4.77,4.77,0,0,0,0-8A5.92,5.92,0,0,0,68,94H65.21Z"/><path class="cls-1" d="M77.05,94H82.3v.88H78v3.45h4.15v.86H78v3.54H82.3v.87H77.05Z"/><path class="cls-1" d="M89.22,94h1v8.73h4v.87H89.22Z"/><path class="cls-1" d="M95.92,94h1l-1.31,2.85h-.87Z"/><path class="cls-1" d="M100.74,94h1v9.59h-1Z"/><path class="cls-1" d="M106.63,94h1.48l3.49,8.16L115.1,94h1.47v9.59h-1V95h0L112,103.58h-.82L107.62,95h0v8.55h-1Z"/><path class="cls-1" d="M124.6,95.07l1.84,4.41h-3.72Zm-4.64,8.5h1l1.4-3.23h4.46l1.39,3.23h1L125.13,94h-1.08Z"/><path class="cls-1" d="M141.7,99.14a5,5,0,0,1-5.07,4.58,5.11,5.11,0,0,1-5.15-5,5.06,5.06,0,0,1,5.13-5,5,5,0,0,1,4.53,2.73H140a4,4,0,0,0-3.41-1.86,4.1,4.1,0,1,0,0,8.2,4.06,4.06,0,0,0,3.88-2.84h-5.35v-.87Z"/><path class="cls-1" d="M144.8,94h5.25v.86h-4.29V98.3h4.15v.86h-4.15v3.54h4.29v.87H144.8Z"/></g></g></svg>