<svg xmlns="http://www.w3.org/2000/svg" viewBox="0 0 189.09 103.77"><defs><style>.cls-1{fill:#fff;}</style></defs><title>jardin_imparfait</title><g id="Calque_2" data-name="Calque 2"><g id="À_propos" data-name="À propos"><rect class="cls-1" x="140.56" y="38.37" width="5.9" height="30.65"/><path class="cls-1" d="M125.8,38.37h-8.87V69h9.15a8.71,8.71,0,0,0,8.47-8.74V47.11A8.76,8.76,0,0,0,125.8,38.37Zm2.49,11.92v10a2.49,2.49,0,0,1-2.49,2.49h-.94a1.56,1.56,0,0,1-1.56-1.56v-15a1.56,1.56,0,0,1,1.56-1.56h.94a2.49,2.49,0,0,1,2.49,2.49Z"/><path class="cls-1" d="M31.77,75.37a8.66,8.66,0,0,0-4.65,1.36,1.56,1.56,0,0,1-1.7,0,8.69,8.69,0,0,0-13.54,7.22v19.84H18.1V83.93a2.49,2.49,0,1,1,5,0v19.84h6.21V84.06a2.49,2.49,0,0,1,5,0v19.71h6.21V84.06A8.71,8.71,0,0,0,31.77,75.37Z"/><path class="cls-1" d="M55.06,75.48H46.42v28.29h5.9V94.44a1.56,1.56,0,0,1,1.55-1.56h1.18a8.7,8.7,0,1,0,0-17.4Zm0,11.19H53.88a1.56,1.56,0,0,1-1.55-1.56V83.25a1.56,1.56,0,0,1,1.55-1.56h1.18a2.49,2.49,0,0,1,0,5Z"/><path class="cls-1" d="M176,76h-4.09v5.9H176a1.56,1.56,0,0,1,1.56,1.56v20.32h5.9V83.42A1.56,1.56,0,0,1,185,81.86h4.1V76H176Z"/><rect class="cls-1" x="161.88" y="75.96" width="5.9" height="27.81"/><rect class="cls-1" y="75.48" width="5.9" height="28.29"/><path class="cls-1" d="M148.35,75.84a8.71,8.71,0,0,0-8.7,8.7v19.23h6.21V94.5a1.55,1.55,0,0,1,1.56-1.56h1.86a1.55,1.55,0,0,1,1.56,1.56v9.27H157V84.54A8.71,8.71,0,0,0,148.35,75.84Zm2.49,9.64A1.55,1.55,0,0,1,149.28,87h-1.86a1.55,1.55,0,0,1-1.56-1.55v-.95a2.49,2.49,0,1,1,5,0Z"/><path class="cls-1" d="M119.41,75.66h-2.72v28.11h5.9V95.53a2.5,2.5,0,0,1,2.32-2.47h9.77V86.8h-9.78a2.48,2.48,0,0,1-2.31-2.37s0-.09,0-.13a2.48,2.48,0,0,1,2.33-2.37h9.75V75.66H119.41Z"/><path class="cls-1" d="M109.51,70.5A8.81,8.81,0,0,0,111,65.65c0-.09,0-18.58,0-18.67a8.88,8.88,0,0,0-8.87-8.59H93.28v65.36h6V76.26a1.59,1.59,0,0,1,1.59-1.59h1.27a2.54,2.54,0,0,1,2.54,2.54v26.55H111V77.21a8.82,8.82,0,0,0-1.51-5A1.59,1.59,0,0,1,109.51,70.5Zm-7.42-2.31h-1.2A1.59,1.59,0,0,1,99.3,66.6V46.31a1.59,1.59,0,0,1,1.59-1.59h1.2a2.54,2.54,0,0,1,2.54,2.54s0,18.47,0,18.51A2.54,2.54,0,0,1,102.09,68.19Z"/><path class="cls-1" d="M78.47,38.19a8.88,8.88,0,0,0-8.87,8.87v56.71h6.34V76a1.59,1.59,0,0,1,1.59-1.59h1.9A1.59,1.59,0,0,1,81,76v27.73h6.34V47.07A8.88,8.88,0,0,0,78.47,38.19ZM81,66.85a1.59,1.59,0,0,1-1.59,1.59h-1.9a1.59,1.59,0,0,1-1.59-1.59V47.07a2.54,2.54,0,1,1,5.08,0Z"/><path class="cls-1" d="M188.75,69.1h-6.13V57.34c0-6.76-5.52-12.69-11.82-12.69S159,50.58,159,57.34V69h-6.13V57.34c0-10.2,8.22-18.82,17.95-18.82s17.95,8.62,17.95,18.82Z"/><path class="cls-1" d="M20.76,34.87A2.48,2.48,0,0,1,18.4,32.4V12.61H12.5V41.12H29.78V34.87h-9Z"/><path class="cls-1" d="M37.55,12.47H34.83V41.27H52.47V35h-9.4a2.49,2.49,0,0,1-2.34-2.46v-.22a2.5,2.5,0,0,1,2.32-2.47h9.41V23.6H43.06a2.48,2.48,0,0,1-2.32-2.37s0-.09,0-.13a2.48,2.48,0,0,1,2.33-2.37h9.4V12.47H37.55Z"/><path class="cls-1" d="M32.49,70.92a32.15,32.15,0,0,1-23-9.64A32.85,32.85,0,0,1,0,38.08H6.14A27,27,0,0,0,13.81,57a26.29,26.29,0,0,0,37.37,0,26.68,26.68,0,0,0,7.67-18.86v-32H34.78V0H65V38.13A32.79,32.79,0,0,1,55.54,61.3,32.12,32.12,0,0,1,32.49,70.92Z"/></g></g></svg>